<svg xmlns="http://www.w3.org/2000/svg" width="25" height="25" viewBox="0 0 25 25"><defs><style>.a,.b{fill:none;}.a{opacity:0.37;}.b{stroke:#262626;stroke-linecap:round;stroke-linejoin:round;stroke-width:1.5px;}.c{fill:#f03e3e;}.d{fill:#f7f7f7;font-size:9px;font-family:NanumSquareB, NanumSquare;}</style></defs><rect class="a" width="25" height="25"/><g transform="translate(3.5 2.5)"><path class="b" d="M97.611,63.317c-1.312-1.587-2.238-2.394-2.238-6.768,0-4.006-2.07-5.433-3.774-6.126a.9.9,0,0,1-.508-.533,2.283,2.283,0,0,0-4.5,0,.9.9,0,0,1-.508.532c-1.706.694-3.774,2.116-3.774,6.126,0,4.374-.929,5.182-2.241,6.768a1.018,1.018,0,0,0,.883,1.644H96.733A1.018,1.018,0,0,0,97.611,63.317Zm-5.5,1.644v.808a3.27,3.27,0,0,1-6.54,0v-.808" transform="translate(-79.839 -48)"/></g><g transform="translate(-373 -65)"><g transform="translate(385 65)"><circle class="c" cx="6.5" cy="6.5" r="6.5"/><text class="d" transform="translate(4 9)"><tspan x="0" y="0">5</tspan></text></g></g></svg>